<?xml version="1.0" encoding="UTF-8"?>
<svg version="1.1" viewBox="0 0 800 800" width="200" height="200" xmlns="http://www.w3.org/2000/svg">
<path transform="translate(386,75)" d="m0 0h62l16 4 9 6 7 6 8 14 3 11 1 10h103l10 3 8 6 5 5 6 9 3 8 1 7v45l10 2 3 4 1 9-5 5-19 10-42 21-22 12-130 65-19 10-56 28-21 10-40 20-19 10-104 52-9 2-6-5-2-4v-6l5-5 18-10 60-30-12-9-7-9-4-8-2-8v-213l3-12 7-11 8-7 10-5 4-1 104-1 3-17 4-9 6-9 8-7 12-6zm-4 22-10 6-5 7-3 9v5l3 1h100l2-1v-7l-4-10-7-7-7-3z" fill="#042D24"/>
<path transform="translate(282,147)" d="m0 0h278l3 3 4 11 6 10 10 10 14 8 9 4 1 1v17l-10-4-22-4h-19l-15 2-28 7-7-1-40-18-23-10-20-9-25-11-14-7-9-2h-44l-7 2v11l11 9 18 13 17 13 19 14 17 13 16 12 13 10 2 3-9 5-14 10-13 10-11 9-13 11-11 10-8 7-12 11-8 7-7 8-8 7-6 7-4-1-7-6-19-13h-8l-5 5-1 2v9l4 2 9 8 10 7 4 4v2l-18 8-4-1-8-15-11-12-15-8-14-4-1-1-1-45v-94l4-2 12-3 12-6 9-7 7-10 5-10 3-16z" fill="#787B25"/>
<path transform="translate(640,240)" d="m0 0 4 1 4 6-1 5-18 10-1 106-2 15-5 10-7 8-11 7-8 2-12 1h-155l-94 1-7 2-74 37-5 2-5-1-3-5v-5l8-5 45-23 17-9 44-22 19-9 19-10 44-22 17-9 19-9 19-10 130-65z" fill="#052E24"/>
<path transform="translate(603,275)" d="m0 0h3l1 13v56l-12 4-11 6-12 12-6 10-4 12h-182l3-3 25-12 19-10 58-29 19-10 96-48z" fill="#787B25"/>
<path transform="translate(82,517)" d="m0 0h109v28h32v9l4 1 2-4 9-6 9-2h11l1 1-1 10-5 19-2 8-7-1h-12l-5 5-1 3-1 45-1 1h-32l-1-1-1-85h-36v85l-2 1h-33l-1-1v-85h-35l-1-1z" fill="#032C24"/>
<path transform="translate(362,170)" d="m0 0 12 2 30 13 39 17 25 11 23 10 1 12h12l17-7 23-6 12-2h19l12 2 9 3v2l-98 49-19 10-106 53-23 11-2-1 13-13 8-7 11-10 11-9 14-12 13-10 19-14 19-13 5-5-3-9-18-14-19-14-28-21-21-16-11-8-1-3z" fill="#FDFDFD"/>
<path transform="translate(547,543)" d="m0 0h9l11 3 9 5 1-6h32v78l-2 18-4 9-4 6-4 5-9 6-12 4-6 1h-21l-18-4-12-6-1-3 9-19 2-1 12 4 6 1h16l7-3 4-5 2-5 1-6-12 5-13 2-12-2-14-7-6-7-6-12-2-10v-11l3-13 6-11 7-8 14-7zm11 27-7 2-5 5-2 4-1 8 2 10 4 6 7 3h7l7-4 4-6 1-3v-13l-5-8-4-3z" fill="#042D25"/>
<path transform="translate(647,287)" d="m0 0h7l6 4 2 5v72l-2 20-3 12-7 13-8 10-9 7-11 5-14 4-22 3-15 1h-196l-7-7v-9l6-5 2-1 201-1 23-2 15-4 10-6 7-8 5-12 2-15 1-79 5-6z" fill="#032C24"/>
<path transform="translate(386,155)" d="m0 0h174l3 3 5 13 9 12 12 9 12 5 5 2v-5h1v17l-10-4-22-4h-19l-15 2-28 7-7-1-40-18-23-10-20-9-25-11-13-6z" fill="#787B25"/>
<path transform="translate(291,543)" d="m0 0h9l10 3 8 6 2 1v-8h32l1 4v84l-2 1h-31l-1-7-7 4-9 4h-17l-10-4-10-9-6-10-4-15v-13l3-14 5-10 9-10 9-5zm12 27-7 2-5 6-2 8 1 11 4 8 6 3h9l5-3 5-8v-15l-5-8-4-3z" fill="#042D24"/>
<path transform="translate(663,543)" d="m0 0 16 1 10 3 11 6 9 9 7 14 1 4v19l-4 11-6 9-7 7-14 7-7 2-15 1-16-3-10-5-10-9-6-9-4-11v-19l5-13 7-9 7-6 14-7zm1 28-7 4-5 8v13l5 8 8 4 8-1 6-4 4-8v-12l-4-7-6-4z" fill="#032C25"/>
<path transform="translate(357,545)" d="m0 0h37l3 9 10 36v2l2-1 12-45 1-1h38l-10 23-26 60-3 5-1 1h-26l-3-5-17-40-15-37z" fill="#032D25"/>
<path transform="translate(466,545)" d="m0 0h33l1 1v87l-1 1h-32l-1-1z" fill="#022C25"/>
<path transform="translate(282,147)" d="m0 0h278l3 3 4 11 6 10 10 10 14 8 9 4v6l-11-3-12-7-9-8-7-10-5-13v-2h-178l-9-2h-44l-4 1-46 1-1-1v-6z" fill="#FDFDFD"/>
<path transform="translate(580,234)" d="m0 0 3 1-6 3-1 3 1 4-5 3-6 2-7 5-10 3v2h-2v-2l-7 5-1 2-9 3-2-1-8 2-9 5-8 4-8 3-5 3h-2l-2 4h-4l-3 7-7 1-2-1-1 5-4 1-8 5-16 8-7 5-4-1v-1l-4-1-2 2 3 2-1 3-12 5-11 1-9 3-6 4h-5l-1 3h-7v-2l122-61 19-10z" fill="#0A2B24"/>
<path transform="translate(603,275)" d="m0 0h3v5l-17 9-23 11-76 38-19 10-58 29-15 8-7 3h-11l3-3 25-12 19-10 58-29 19-10 96-48z" fill="#FDFDFD"/>
<path transform="translate(246,147)" d="m0 0h18l2 1-1 7-5 12-6 8-7 6-14 6h-5v-25l4-8 5-4z" fill="#E4C451"/>
<path transform="translate(477,497)" d="m0 0h12l8 4 4 5 1 2v8l-4 7-5 4-4 1h-14l-6-3-5-7v-10l4-6 6-4z" fill="#032C24"/>
<path transform="translate(323,168)" d="m0 0 4 1 9 8 17 12 17 13 19 14 17 13 16 12 13 10 2 3-4 2-4-1-7-6-19-14-13-10-60-45-5-4-2-4z" fill="#FDFDFD"/>
<path transform="translate(229,358)" d="m0 0 13 4 10 6 8 9 4 7v4l-18 1-9-3-5-4-3-6-1-5v-12z" fill="#E4C451"/>
<path transform="translate(602,360)" d="m0 0 4 1v12l-4 8-7 6-7 2h-11l1-5 5-9 6-7z" fill="#DFC14F"/>
<path transform="translate(577,147)" d="m0 0h11l9 3 6 5 2 5 1 15h-6l-9-6-8-8-6-10z" fill="#E4C451"/>
<path transform="translate(279,159)" d="m0 0h1l-1 10-4 10-8 11-8 8-12 7-13 4h-6v-6l4-2 12-3 12-6 9-7 7-10 5-10z" fill="#FDFDFD"/>
<path transform="translate(246,147)" d="m0 0h18l2 1-1 7-3 1h-18l-7 2-5 4-3 6h-1l1-9 4-6 8-5z" fill="#FDFDFD"/>
<path transform="translate(229,358)" d="m0 0 13 4 10 6 8 9 4 7v4l-4-1-6-9-10-7-8-3-8-1v-8z" fill="#FDFDFD"/>
<path transform="translate(567,158)" d="m0 0 7 2 3 2v2l4 2 5 4 3 6-2 5-4 1-11-11-5-8z" fill="#062824"/>
<path transform="translate(577,147)" d="m0 0h11l9 3 6 5 2 5v6l-7-6-5-3-13-1-3-5z" fill="#FDFDFD"/>
<path transform="translate(602,360)" d="m0 0 4 1v6l-14 8-7 6-3 6-4 1-1-2 6-11 6-7z" fill="#FDFDFD"/>
<path transform="translate(272,351)" d="m0 0 5 3 9 8 10 7 4 4v2l-6 1-8-7-8-6-6-7z" fill="#FDFDFD"/>
<path transform="translate(566,203)" d="m0 0 15 1 15 3v1h-13l-6-2h-20l-4 2-7 1-8-2 4-2 6-1z" fill="#022524"/>
<path transform="translate(595,361)" d="m0 0m-1 1 1 3-8 6-6 9-3 4-4-1 1-5 11-11 5-1 1-3z" fill="#0F2F24"/>
<path transform="translate(606,368)" d="m0 0 2 2 1 6-3 7-1 2h-4l-1 3-3 1h-9l3-2 7-3 5-6z" fill="#1B3924"/>
<path transform="translate(575,364)" d="m0 0 2 1-3 7-2 3-3 6-3 3h-2v-5h2l2-6z" fill="#022524"/>
<path transform="translate(230,379)" d="m0 0 7 6 9 3 4 3h-12l-8-7-1-3z" fill="#1B3824"/>
<path transform="translate(257,173)" d="m0 0 2 1v2l-5 4-4 4-2-2 5-5z" fill="#022524"/>
<path transform="translate(426,315)" d="m0 0 6 1-3 5-6-1 1-4z" fill="#022A24"/>
<path transform="translate(332,340)" d="m0 0h2l-1 4-7 6-2-1z" fill="#022524"/>
<path transform="translate(381,334)" d="m0 0 3 1-2 4h-7v-2z" fill="#0E2F24"/>
<path transform="translate(262,379)" d="m0 0 4 2 2 5-4 2z" fill="#183624"/>
<path transform="translate(501,232)" d="m0 0 5 1v2l-7 1-2-1v-2z" fill="#143324"/>
</svg>
